<?xml version="1.0" encoding="UTF-8" standalone="no"?>
<!DOCTYPE svg PUBLIC "-//W3C//DTD SVG 1.1//EN"
 "http://www.w3.org/Graphics/SVG/1.1/DTD/svg11.dtd">
<!-- Generated by graphviz version 2.40.1 (20161225.0304)
 -->
<!-- Title: G Pages: 1 -->
<svg width="309pt" height="196pt"
 viewBox="0.00 0.00 309.26 195.98" xmlns="http://www.w3.org/2000/svg" xmlns:xlink="http://www.w3.org/1999/xlink">
<g id="graph0" class="graph" transform="scale(1 1) rotate(0) translate(7.992 187.992)">
<title>G</title>
<polygon fill="#000000" stroke="transparent" points="-7.992,7.992 -7.992,-187.992 301.2688,-187.992 301.2688,7.992 -7.992,7.992"/>
<!-- lib/convert.js -->
<g id="node1" class="node">
<title>lib/convert.js</title>
<ellipse fill="none" stroke="#cfffac" cx="63.1358" cy="-18" rx="63.2718" ry="18"/>
<text text-anchor="middle" x="63.1358" y="-14.8493" font-family="Arial" font-size="14.00" fill="#cfffac">lib/convert.js</text>
</g>
<!-- lib/print.js -->
<g id="node2" class="node">
<title>lib/print.js</title>
<ellipse fill="none" stroke="#c6c5fe" cx="141.1358" cy="-90" rx="50.6324" ry="18"/>
<text text-anchor="middle" x="141.1358" y="-86.8493" font-family="Arial" font-size="14.00" fill="#c6c5fe">lib/print.js</text>
</g>
<!-- lib/print.js&#45;&gt;lib/convert.js -->
<g id="edge1" class="edge">
<title>lib/print.js&#45;&gt;lib/convert.js</title>
<path fill="none" stroke="#757575" d="M122.6508,-72.937C112.7905,-63.8352 100.4843,-52.4756 89.6254,-42.4519"/>
<polygon fill="#757575" stroke="#757575" points="91.7519,-39.6517 82.0298,-35.4407 87.0039,-44.7953 91.7519,-39.6517"/>
</g>
<!-- lib/printLetter.js -->
<g id="node3" class="node">
<title>lib/printLetter.js</title>
<ellipse fill="none" stroke="#cfffac" cx="219.1358" cy="-18" rx="74.2823" ry="18"/>
<text text-anchor="middle" x="219.1358" y="-14.8493" font-family="Arial" font-size="14.00" fill="#cfffac">lib/printLetter.js</text>
</g>
<!-- lib/print.js&#45;&gt;lib/printLetter.js -->
<g id="edge2" class="edge">
<title>lib/print.js&#45;&gt;lib/printLetter.js</title>
<path fill="none" stroke="#757575" d="M159.6207,-72.937C169.481,-63.8352 181.7872,-52.4756 192.6461,-42.4519"/>
<polygon fill="#757575" stroke="#757575" points="195.2676,-44.7953 200.2417,-35.4407 190.5196,-39.6517 195.2676,-44.7953"/>
</g>
<!-- main.js -->
<g id="node4" class="node">
<title>main.js</title>
<ellipse fill="none" stroke="#c6c5fe" cx="141.1358" cy="-162" rx="40.7293" ry="18"/>
<text text-anchor="middle" x="141.1358" y="-158.8493" font-family="Arial" font-size="14.00" fill="#c6c5fe">main.js</text>
</g>
<!-- main.js&#45;&gt;lib/convert.js -->
<g id="edge3" class="edge">
<title>main.js&#45;&gt;lib/convert.js</title>
<path fill="none" stroke="#757575" d="M118.0927,-146.9151C105.2476,-137.2985 90.0822,-123.7094 81.1358,-108 70.3911,-89.1331 65.9849,-64.8535 64.2138,-46.268"/>
<polygon fill="#757575" stroke="#757575" points="67.6868,-45.7768 63.4474,-36.0672 60.7065,-46.3013 67.6868,-45.7768"/>
</g>
<!-- main.js&#45;&gt;lib/print.js -->
<g id="edge4" class="edge">
<title>main.js&#45;&gt;lib/print.js</title>
<path fill="none" stroke="#757575" d="M141.1358,-143.8314C141.1358,-136.131 141.1358,-126.9743 141.1358,-118.4166"/>
<polygon fill="#757575" stroke="#757575" points="144.6359,-118.4132 141.1358,-108.4133 137.6359,-118.4133 144.6359,-118.4132"/>
</g>
<!-- main.js&#45;&gt;lib/printLetter.js -->
<g id="edge5" class="edge">
<title>main.js&#45;&gt;lib/printLetter.js</title>
<path fill="none" stroke="#757575" d="M164.1788,-146.9151C177.0239,-137.2985 192.1893,-123.7094 201.1358,-108 211.8804,-89.1331 216.2866,-64.8535 218.0577,-46.268"/>
<polygon fill="#757575" stroke="#757575" points="221.565,-46.3013 218.8241,-36.0672 214.5847,-45.7768 221.565,-46.3013"/>
</g>
</g>
</svg>
