<?xml version="1.0" encoding="UTF-8" standalone="no"?>
<!DOCTYPE svg PUBLIC "-//W3C//DTD SVG 1.1//EN"
 "http://www.w3.org/Graphics/SVG/1.1/DTD/svg11.dtd">
<!-- Generated by graphviz version 2.40.1 (20161225.0304)
 -->
<!-- Title: G Pages: 1 -->
<svg width="144pt" height="196pt"
 viewBox="0.00 0.00 144.00 195.98" xmlns="http://www.w3.org/2000/svg" xmlns:xlink="http://www.w3.org/1999/xlink">
<g id="graph0" class="graph" transform="scale(1 1) rotate(0) translate(7.992 187.992)">
<title>G</title>
<polygon fill="#000000" stroke="transparent" points="-7.992,7.992 -7.992,-187.992 136.0098,-187.992 136.0098,7.992 -7.992,7.992"/>
<!-- lib/convert.js -->
<g id="node1" class="node">
<title>lib/convert.js</title>
<ellipse fill="none" stroke="#ff6c60" cx="63.1358" cy="-162" rx="63.2718" ry="18"/>
<text text-anchor="middle" x="63.1358" y="-158.8493" font-family="Arial" font-size="14.00" fill="#ff6c60">lib/convert.js</text>
</g>
<!-- lib/print.js -->
<g id="node2" class="node">
<title>lib/print.js</title>
<ellipse fill="none" stroke="#ff6c60" cx="63.1358" cy="-90" rx="50.6324" ry="18"/>
<text text-anchor="middle" x="63.1358" y="-86.8493" font-family="Arial" font-size="14.00" fill="#ff6c60">lib/print.js</text>
</g>
<!-- lib/convert.js&#45;&gt;lib/print.js -->
<g id="edge1" class="edge">
<title>lib/convert.js&#45;&gt;lib/print.js</title>
<path fill="none" stroke="#757575" d="M57.1834,-143.8314C56.4214,-136.0125 56.2054,-126.6923 56.5353,-118.0221"/>
<polygon fill="#757575" stroke="#757575" points="60.0362,-118.1239 57.2085,-107.9134 53.0516,-117.6587 60.0362,-118.1239"/>
</g>
<!-- lib/print.js&#45;&gt;lib/convert.js -->
<g id="edge2" class="edge">
<title>lib/print.js&#45;&gt;lib/convert.js</title>
<path fill="none" stroke="#757575" d="M69.063,-107.9134C69.8369,-115.6993 70.0648,-125.01 69.7468,-133.6941"/>
<polygon fill="#757575" stroke="#757575" points="66.244,-133.6254 69.0881,-143.8314 73.2293,-134.0794 66.244,-133.6254"/>
</g>
<!-- main.js -->
<g id="node3" class="node">
<title>main.js</title>
<ellipse fill="none" stroke="#ff6c60" cx="63.1358" cy="-18" rx="40.7293" ry="18"/>
<text text-anchor="middle" x="63.1358" y="-14.8493" font-family="Arial" font-size="14.00" fill="#ff6c60">main.js</text>
</g>
<!-- lib/print.js&#45;&gt;main.js -->
<g id="edge3" class="edge">
<title>lib/print.js&#45;&gt;main.js</title>
<path fill="none" stroke="#757575" d="M57.1834,-71.8314C56.4214,-64.0125 56.2054,-54.6923 56.5353,-46.0221"/>
<polygon fill="#757575" stroke="#757575" points="60.0362,-46.1239 57.2085,-35.9134 53.0516,-45.6587 60.0362,-46.1239"/>
</g>
<!-- main.js&#45;&gt;lib/convert.js -->
<g id="edge4" class="edge">
<title>main.js&#45;&gt;lib/convert.js</title>
<path fill="none" stroke="#757575" d="M87.3538,-32.4905C100.603,-41.9027 115.7808,-55.4855 123.1358,-72 129.6452,-86.616 129.6452,-93.384 123.1358,-108 117.7371,-120.1219 108.1238,-130.6642 98.152,-139.137"/>
<polygon fill="#757575" stroke="#757575" points="95.8139,-136.5241 90.1518,-145.479 100.1625,-142.0096 95.8139,-136.5241"/>
</g>
<!-- main.js&#45;&gt;lib/print.js -->
<g id="edge5" class="edge">
<title>main.js&#45;&gt;lib/print.js</title>
<path fill="none" stroke="#757575" d="M69.063,-35.9134C69.8369,-43.6993 70.0648,-53.01 69.7468,-61.6941"/>
<polygon fill="#757575" stroke="#757575" points="66.244,-61.6254 69.0881,-71.8314 73.2293,-62.0794 66.244,-61.6254"/>
</g>
</g>
</svg>
