<?xml version="1.0" encoding="UTF-8" standalone="no"?>
<!DOCTYPE svg PUBLIC "-//W3C//DTD SVG 1.1//EN"
 "http://www.w3.org/Graphics/SVG/1.1/DTD/svg11.dtd">
<!-- Generated by graphviz version 2.40.1 (20161225.0304)
 -->
<!-- Title: G Pages: 1 -->
<svg width="307pt" height="196pt"
 viewBox="0.00 0.00 307.26 195.98" xmlns="http://www.w3.org/2000/svg" xmlns:xlink="http://www.w3.org/1999/xlink">
<g id="graph0" class="graph" transform="scale(1 1) rotate(0) translate(7.992 187.992)">
<title>G</title>
<polygon fill="#000000" stroke="transparent" points="-7.992,7.992 -7.992,-187.992 299.2688,-187.992 299.2688,7.992 -7.992,7.992"/>
<!-- lib/convert.js -->
<g id="node1" class="node">
<title>lib/convert.js</title>
<ellipse fill="none" stroke="#cfffac" cx="63.1358" cy="-90" rx="63.2718" ry="18"/>
<text text-anchor="middle" x="63.1358" y="-86.8493" font-family="Arial" font-size="14.00" fill="#cfffac">lib/convert.js</text>
</g>
<!-- lib/printLetter.js -->
<g id="node2" class="node">
<title>lib/printLetter.js</title>
<ellipse fill="none" stroke="#cfffac" cx="217.1358" cy="-18" rx="74.2823" ry="18"/>
<text text-anchor="middle" x="217.1358" y="-14.8493" font-family="Arial" font-size="14.00" fill="#cfffac">lib/printLetter.js</text>
</g>
<!-- lib/printWord.js -->
<g id="node3" class="node">
<title>lib/printWord.js</title>
<ellipse fill="none" stroke="#c6c5fe" cx="217.1358" cy="-90" rx="72.8161" ry="18"/>
<text text-anchor="middle" x="217.1358" y="-86.8493" font-family="Arial" font-size="14.00" fill="#c6c5fe">lib/printWord.js</text>
</g>
<!-- lib/printWord.js&#45;&gt;lib/printLetter.js -->
<g id="edge1" class="edge">
<title>lib/printWord.js&#45;&gt;lib/printLetter.js</title>
<path fill="none" stroke="#757575" d="M217.1358,-71.8314C217.1358,-64.131 217.1358,-54.9743 217.1358,-46.4166"/>
<polygon fill="#757575" stroke="#757575" points="220.6359,-46.4132 217.1358,-36.4133 213.6359,-46.4133 220.6359,-46.4132"/>
</g>
<!-- main.js -->
<g id="node4" class="node">
<title>main.js</title>
<ellipse fill="none" stroke="#c6c5fe" cx="140.1358" cy="-162" rx="40.7293" ry="18"/>
<text text-anchor="middle" x="140.1358" y="-158.8493" font-family="Arial" font-size="14.00" fill="#c6c5fe">main.js</text>
</g>
<!-- main.js&#45;&gt;lib/convert.js -->
<g id="edge2" class="edge">
<title>main.js&#45;&gt;lib/convert.js</title>
<path fill="none" stroke="#757575" d="M122.6633,-145.6621C112.7129,-136.3579 100.0595,-124.5261 88.9796,-114.1657"/>
<polygon fill="#757575" stroke="#757575" points="91.3076,-111.5508 81.6128,-107.2773 86.5266,-116.6637 91.3076,-111.5508"/>
</g>
<!-- main.js&#45;&gt;lib/printWord.js -->
<g id="edge3" class="edge">
<title>main.js&#45;&gt;lib/printWord.js</title>
<path fill="none" stroke="#757575" d="M157.6082,-145.6621C167.4865,-136.4253 180.0288,-124.6974 191.0508,-114.3911"/>
<polygon fill="#757575" stroke="#757575" points="193.4734,-116.9176 198.3871,-107.5312 188.6924,-111.8047 193.4734,-116.9176"/>
</g>
</g>
</svg>
