<?xml version="1.0" encoding="UTF-8" standalone="no"?>
<!DOCTYPE svg PUBLIC "-//W3C//DTD SVG 1.1//EN"
 "http://www.w3.org/Graphics/SVG/1.1/DTD/svg11.dtd">
<!-- Generated by graphviz version 2.40.1 (20161225.0304)
 -->
<!-- Title: G Pages: 1 -->
<svg width="217pt" height="268pt"
 viewBox="0.00 0.00 217.26 267.98" xmlns="http://www.w3.org/2000/svg" xmlns:xlink="http://www.w3.org/1999/xlink">
<g id="graph0" class="graph" transform="scale(1 1) rotate(0) translate(7.992 259.992)">
<title>G</title>
<polygon fill="#000000" stroke="transparent" points="-7.992,7.992 -7.992,-259.992 209.2688,-259.992 209.2688,7.992 -7.992,7.992"/>
<!-- lib/convert.js -->
<g id="node1" class="node">
<title>lib/convert.js</title>
<ellipse fill="none" stroke="#ff6c60" cx="63.1358" cy="-162" rx="63.2718" ry="18"/>
<text text-anchor="middle" x="63.1358" y="-158.8493" font-family="Arial" font-size="14.00" fill="#ff6c60">lib/convert.js</text>
</g>
<!-- lib/print.js -->
<g id="node2" class="node">
<title>lib/print.js</title>
<ellipse fill="none" stroke="#ff6c60" cx="88.1358" cy="-90" rx="50.6324" ry="18"/>
<text text-anchor="middle" x="88.1358" y="-86.8493" font-family="Arial" font-size="14.00" fill="#ff6c60">lib/print.js</text>
</g>
<!-- lib/convert.js&#45;&gt;lib/print.js -->
<g id="edge1" class="edge">
<title>lib/convert.js&#45;&gt;lib/print.js</title>
<path fill="none" stroke="#757575" d="M63.4919,-143.8314C65.5092,-135.7547 68.6653,-126.0761 72.1368,-117.1668"/>
<polygon fill="#757575" stroke="#757575" points="75.3768,-118.4906 75.9885,-107.9134 68.9143,-115.8005 75.3768,-118.4906"/>
</g>
<!-- lib/print.js&#45;&gt;lib/convert.js -->
<g id="edge2" class="edge">
<title>lib/print.js&#45;&gt;lib/convert.js</title>
<path fill="none" stroke="#757575" d="M87.7984,-108.0931C85.7766,-116.2066 82.6,-125.9483 79.1067,-134.9052"/>
<polygon fill="#757575" stroke="#757575" points="75.8483,-133.6254 75.2313,-144.2022 82.3094,-136.3187 75.8483,-133.6254"/>
</g>
<!-- lib/printLetter.js -->
<g id="node3" class="node">
<title>lib/printLetter.js</title>
<ellipse fill="none" stroke="#cfffac" cx="127.1358" cy="-18" rx="74.2823" ry="18"/>
<text text-anchor="middle" x="127.1358" y="-14.8493" font-family="Arial" font-size="14.00" fill="#cfffac">lib/printLetter.js</text>
</g>
<!-- lib/print.js&#45;&gt;lib/printLetter.js -->
<g id="edge3" class="edge">
<title>lib/print.js&#45;&gt;lib/printLetter.js</title>
<path fill="none" stroke="#757575" d="M97.7762,-72.2022C102.1959,-64.0428 107.5326,-54.1904 112.4372,-45.1358"/>
<polygon fill="#757575" stroke="#757575" points="115.65,-46.5531 117.3353,-36.0931 109.4949,-43.219 115.65,-46.5531"/>
</g>
<!-- main.js -->
<g id="node4" class="node">
<title>main.js</title>
<ellipse fill="none" stroke="#c6c5fe" cx="154.1358" cy="-234" rx="40.7293" ry="18"/>
<text text-anchor="middle" x="154.1358" y="-230.8493" font-family="Arial" font-size="14.00" fill="#c6c5fe">main.js</text>
</g>
<!-- main.js&#45;&gt;lib/convert.js -->
<g id="edge4" class="edge">
<title>main.js&#45;&gt;lib/convert.js</title>
<path fill="none" stroke="#757575" d="M133.9399,-218.0209C121.7985,-208.4145 106.1323,-196.0192 92.6241,-185.3315"/>
<polygon fill="#757575" stroke="#757575" points="94.557,-182.3978 84.5431,-178.9377 90.2136,-187.8873 94.557,-182.3978"/>
</g>
<!-- main.js&#45;&gt;lib/print.js -->
<g id="edge5" class="edge">
<title>main.js&#45;&gt;lib/print.js</title>
<path fill="none" stroke="#757575" d="M152.9973,-215.8744C151.2149,-197.0464 146.6702,-167.1567 135.1358,-144 129.7901,-133.2679 121.7991,-122.9561 113.9157,-114.2718"/>
<polygon fill="#757575" stroke="#757575" points="116.2173,-111.6136 106.785,-106.7886 111.1497,-116.4426 116.2173,-111.6136"/>
</g>
<!-- main.js&#45;&gt;lib/printLetter.js -->
<g id="edge6" class="edge">
<title>main.js&#45;&gt;lib/printLetter.js</title>
<path fill="none" stroke="#757575" d="M155.8352,-215.6899C158.1296,-185.3209 160.6185,-122.8383 148.1358,-72 145.9635,-63.1531 142.7001,-53.8077 139.3894,-45.4236"/>
<polygon fill="#757575" stroke="#757575" points="142.5956,-44.0176 135.5438,-36.1105 136.1255,-46.6894 142.5956,-44.0176"/>
</g>
</g>
</svg>
